<?xml version="1.0" encoding="utf-8"?>
<!-- Generator: Adobe Illustrator 16.0.0, SVG Export Plug-In . SVG Version: 6.00 Build 0)  -->
<!DOCTYPE svg PUBLIC "-//W3C//DTD SVG 1.0//EN" "http://www.w3.org/TR/2001/REC-SVG-20010904/DTD/svg10.dtd">
<svg version="1.0" id="Layer_1" xmlns="http://www.w3.org/2000/svg" xmlns:xlink="http://www.w3.org/1999/xlink" x="0px" y="0px"
	 width="32px" height="32px" viewBox="0 0 32 32" enable-background="new 0 0 32 32" xml:space="preserve">
<g>
	<path fill="#434854" d="M31.042,0h-2c-0.553,0-1,0.447-1,1v13.017h-3v-4.02c0-0.843-1.219-1.488-2.012-0.489l-4.988,4.983
		c-0.625,0.625-1,0.946-1,1.499c0,0.552,0.385,0.883,1,1.498l5,4.993c0.836,0.835,2,0.655,2-0.499v-3.966h3V31c0,0.553,0.447,1,1,1
		h2c0.553,0,1-0.447,1-1V1C32.042,0.447,31.595,0,31.042,0z"/>
	<path fill="#434854" d="M9.042,9.519c-0.836-0.835-2-0.655-2,0.499v3.966h-3V1c0-0.553-0.447-1-1-1h-2c-0.553,0-1,0.447-1,1v30
		c0,0.553,0.447,1,1,1h2c0.553,0,1-0.447,1-1V17.983h3v4.02c0,0.843,1.219,1.488,2.012,0.489l4.988-4.983
		c0.625-0.625,1-0.946,1-1.499c0-0.552-0.385-0.883-1-1.498L9.042,9.519z"/>
</g>
<g>
</g>
<g>
</g>
<g>
</g>
<g>
</g>
<g>
</g>
<g>
</g>
</svg>
