<?xml version="1.0" encoding="utf-8"?>
<!-- Generator: Adobe Illustrator 16.0.0, SVG Export Plug-In . SVG Version: 6.00 Build 0)  -->
<!DOCTYPE svg PUBLIC "-//W3C//DTD SVG 1.0//EN" "http://www.w3.org/TR/2001/REC-SVG-20010904/DTD/svg10.dtd">
<svg version="1.0" id="Layer_1" xmlns="http://www.w3.org/2000/svg" xmlns:xlink="http://www.w3.org/1999/xlink" x="0px" y="0px"
	 width="32px" height="32px" viewBox="0 0 32 32" enable-background="new 0 0 32 32" xml:space="preserve">
<g>
	<g>
		<g>
			<path fill="#434854" d="M12.042,0c0,0-8.75,0-10,0s-1.219,0.781-0.5,1.5c0.266,0.266,1.604,1.604,3.221,3.221
				C1.861,7.604,0.053,11.585,0.044,16H0.042c0,0.553,0.447,1,1,1h2c0.553,0,1-0.447,1-1h0.002c0.009-3.31,1.363-6.296,3.54-8.458
				c1.924,1.924,3.64,3.64,3.958,3.958c0.751,0.751,1.5,0.734,1.5-0.5c0-0.978,0-10,0-10C13.042,0.447,12.595,0,12.042,0z"/>
		</g>
	</g>
	<g>
		<g>
			<path fill="#434854" d="M32.042,12c0,0,0-8.75,0-10s-0.781-1.219-1.5-0.5c-0.266,0.266-1.604,1.604-3.221,3.221
				c-2.884-2.901-6.864-4.71-11.279-4.719V0c-0.553,0-1,0.447-1,1v2c0,0.553,0.447,1,1,1v0.002c3.31,0.009,6.296,1.363,8.458,3.54
				c-1.924,1.924-3.64,3.64-3.958,3.958c-0.751,0.751-0.734,1.5,0.5,1.5c0.978,0,10,0,10,0C31.595,13,32.042,12.553,32.042,12z"/>
		</g>
	</g>
	<g>
		<g>
			<path fill="#434854" d="M20.042,32c0,0,8.75,0,10,0s1.219-0.781,0.5-1.5c-0.266-0.266-1.604-1.604-3.221-3.221
				c2.901-2.884,4.71-6.864,4.719-11.279h0.002c0-0.553-0.447-1-1-1h-2c-0.553,0-1,0.447-1,1H28.04
				c-0.009,3.31-1.363,6.296-3.54,8.458c-1.924-1.924-3.64-3.64-3.958-3.958c-0.751-0.751-1.5-0.734-1.5,0.5c0,0.978,0,10,0,10
				C19.042,31.553,19.489,32,20.042,32z"/>
		</g>
	</g>
	<g>
		<g>
			<path fill="#434854" d="M0.042,20c0,0,0,8.75,0,10s0.781,1.219,1.5,0.5c0.266-0.266,1.604-1.604,3.221-3.221
				c2.884,2.901,6.864,4.71,11.279,4.719V32c0.553,0,1-0.447,1-1v-2c0-0.553-0.447-1-1-1v-0.002c-3.31-0.009-6.296-1.363-8.458-3.54
				c1.924-1.924,3.64-3.64,3.958-3.958c0.751-0.751,0.734-1.5-0.5-1.5c-0.978,0-10,0-10,0C0.489,19,0.042,19.447,0.042,20z"/>
		</g>
	</g>
</g>
<g>
</g>
<g>
</g>
<g>
</g>
<g>
</g>
<g>
</g>
<g>
</g>
</svg>
