<?xml version="1.0" encoding="utf-8"?>
<!-- Generator: Adobe Illustrator 16.0.0, SVG Export Plug-In . SVG Version: 6.00 Build 0)  -->
<!DOCTYPE svg PUBLIC "-//W3C//DTD SVG 1.0//EN" "http://www.w3.org/TR/2001/REC-SVG-20010904/DTD/svg10.dtd">
<svg version="1.0" id="Layer_1" xmlns="http://www.w3.org/2000/svg" xmlns:xlink="http://www.w3.org/1999/xlink" x="0px" y="0px"
	 width="32px" height="32px" viewBox="0 0 32 32" enable-background="new 0 0 32 32" xml:space="preserve">
<g>
	<path fill="#434854" d="M7.915,5.086c1.871-1.87,3.458-3.457,3.586-3.585c0.751-0.751,0.734-1.5-0.5-1.5c-0.978,0-10,0-10,0
		c-0.553,0-1,0.447-1,1c0,0,0,8.75,0,10s0.781,1.219,1.5,0.5c0.106-0.106,1.703-1.703,3.586-3.587l4.792,4.792
		c0.391,0.392,1.023,0.392,1.414,0l1.414-1.414c0.392-0.391,0.392-1.023,0-1.414L7.915,5.086z"/>
	<path fill="#434854" d="M31,0c0,0-8.75,0-10,0s-1.219,0.781-0.5,1.5c0.106,0.107,1.703,1.703,3.587,3.586l-4.792,4.793
		c-0.392,0.391-0.392,1.023,0,1.414l1.414,1.414c0.391,0.391,1.023,0.391,1.414,0l4.792-4.793c1.87,1.871,3.457,3.459,3.585,3.586
		c0.751,0.752,1.5,0.734,1.5-0.5c0-0.977,0-10,0-10C32,0.447,31.553,0,31,0z"/>
	<path fill="#434854" d="M30.5,20.499c-0.106,0.106-1.703,1.703-3.586,3.587l-4.792-4.792c-0.391-0.392-1.023-0.392-1.414,0
		l-1.414,1.414c-0.392,0.391-0.392,1.023,0,1.414l4.792,4.792c-1.871,1.87-3.458,3.457-3.586,3.585c-0.751,0.751-0.734,1.5,0.5,1.5
		c0.978,0,10,0,10,0c0.553,0,1-0.447,1-1c0,0,0-8.75,0-10S31.219,19.78,30.5,20.499z"/>
	<path fill="#434854" d="M11.292,19.293c-0.391-0.391-1.023-0.391-1.414,0l-4.792,4.793c-1.87-1.871-3.457-3.459-3.585-3.586
		c-0.751-0.752-1.5-0.734-1.5,0.5c0,0.977,0,10,0,10c0,0.553,0.447,1,1,1c0,0,8.75,0,10,0s1.219-0.781,0.5-1.5
		c-0.106-0.107-1.703-1.703-3.587-3.586l4.792-4.793c0.392-0.391,0.392-1.023,0-1.414L11.292,19.293z"/>
</g>
<g>
</g>
<g>
</g>
<g>
</g>
<g>
</g>
<g>
</g>
<g>
</g>
</svg>
