<?xml version="1.0" encoding="utf-8"?>
<!-- Generator: Adobe Illustrator 16.0.0, SVG Export Plug-In . SVG Version: 6.00 Build 0)  -->
<!DOCTYPE svg PUBLIC "-//W3C//DTD SVG 1.0//EN" "http://www.w3.org/TR/2001/REC-SVG-20010904/DTD/svg10.dtd">
<svg version="1.0" id="Layer_1" xmlns="http://www.w3.org/2000/svg" xmlns:xlink="http://www.w3.org/1999/xlink" x="0px" y="0px"
	 width="32px" height="32px" viewBox="0 0 32 32" enable-background="new 0 0 32 32" xml:space="preserve">
<g>
	<path fill="#434854" d="M20,17.488l5,4.993c0.836,0.835,2,0.655,2-0.499v-3.966h4c0.553,0,1-0.447,1-1v-2c0-0.553-0.447-1-1-1h-4
		v-4.02c0-0.843-1.219-1.488-2.012-0.489L20,14.491c-0.625,0.625-1,0.946-1,1.499C19,16.542,19.385,16.873,20,17.488z"/>
	<path fill="#434854" d="M0,14.981v2c0,0.553,0.447,0.993,1,0.993h4v4.011c0,0.843,1.219,1.488,2.012,0.489L12,17.491
		c0.625-0.625,1-0.946,1-1.499c0-0.552-0.385-0.883-1-1.498L7,9.501C6.164,8.666,5,8.846,5,10v3.981H1
		C0.447,13.981,0,14.429,0,14.981z"/>
	<path fill="#434854" d="M10.009,27H14v4c0,0.553,0.447,1,1,1h2c0.553,0,1-0.447,1-1v-4h3.994c0.843,0,1.488-1.219,0.489-2.012
		L17.5,20c-0.625-0.625-0.946-1-1.499-1c-0.552,0-0.883,0.385-1.498,1L9.51,25C8.675,25.836,8.854,27,10.009,27z"/>
	<path fill="#434854" d="M21.991,5H18V1c0-0.553-0.447-1-1-1h-2c-0.553,0-0.993,0.447-0.993,1v4h-4.001
		C9.163,5,8.518,6.219,9.517,7.012L14.5,12c0.625,0.625,0.946,1,1.499,1c0.552,0,0.883-0.385,1.498-1l4.993-5
		C23.325,6.164,23.146,5,21.991,5z"/>
</g>
<g>
</g>
<g>
</g>
<g>
</g>
<g>
</g>
<g>
</g>
<g>
</g>
</svg>
