<?xml version="1.0" encoding="utf-8"?>
<!-- Generator: Adobe Illustrator 16.0.0, SVG Export Plug-In . SVG Version: 6.00 Build 0)  -->
<!DOCTYPE svg PUBLIC "-//W3C//DTD SVG 1.0//EN" "http://www.w3.org/TR/2001/REC-SVG-20010904/DTD/svg10.dtd">
<svg version="1.0" id="Layer_1" xmlns="http://www.w3.org/2000/svg" xmlns:xlink="http://www.w3.org/1999/xlink" x="0px" y="0px"
	 width="32px" height="32px" viewBox="0 0 32 32" enable-background="new 0 0 32 32" xml:space="preserve">
<g>
	<path fill="#434854" d="M5.087,7.915c-1.871,1.87-3.458,3.457-3.586,3.585C0.75,12.251,0.767,13,2.001,13c0.978,0,10,0,10,0
		c0.553,0,1-0.447,1-1c0,0,0-8.75,0-10s-0.781-1.219-1.5-0.5c-0.106,0.106-1.703,1.703-3.586,3.587L3.123,0.295
		c-0.391-0.392-1.023-0.392-1.414,0L0.295,1.709c-0.392,0.391-0.392,1.023,0,1.414L5.087,7.915z"/>
	<path fill="#434854" d="M20.001,13c0,0,8.75,0,10,0s1.219-0.781,0.5-1.5c-0.106-0.107-1.703-1.703-3.587-3.586l4.792-4.793
		c0.392-0.391,0.392-1.023,0-1.414l-1.414-1.414c-0.391-0.391-1.023-0.391-1.414,0l-4.792,4.793
		c-1.87-1.871-3.457-3.459-3.585-3.586c-0.751-0.752-1.5-0.734-1.5,0.5c0,0.977,0,10,0,10C19.001,12.553,19.448,13,20.001,13z"/>
	<path fill="#434854" d="M20.5,30.5c0.106-0.106,1.703-1.703,3.586-3.587l4.792,4.792c0.391,0.392,1.023,0.392,1.414,0l1.414-1.414
		c0.392-0.391,0.392-1.023,0-1.414l-4.792-4.792c1.871-1.87,3.458-3.457,3.586-3.585c0.751-0.751,0.734-1.5-0.5-1.5
		c-0.978,0-10,0-10,0c-0.553,0-1,0.447-1,1c0,0,0,8.75,0,10S19.781,31.219,20.5,30.5z"/>
	<path fill="#434854" d="M1.708,31.707c0.391,0.391,1.023,0.391,1.414,0l4.793-4.793c1.869,1.871,3.457,3.459,3.584,3.586
		c0.752,0.752,1.5,0.734,1.5-0.5c0-0.977,0-10,0-10c0-0.553-0.447-1-1-1c0,0-8.75,0-10,0s-1.219,0.781-0.5,1.5
		c0.107,0.107,1.703,1.703,3.588,3.586l-4.793,4.793c-0.391,0.391-0.391,1.023,0,1.414L1.708,31.707z"/>
</g>
<g>
</g>
<g>
</g>
<g>
</g>
<g>
</g>
<g>
</g>
<g>
</g>
</svg>
