<?xml version="1.0" encoding="utf-8"?>
<!-- Generator: Adobe Illustrator 16.0.0, SVG Export Plug-In . SVG Version: 6.00 Build 0)  -->
<!DOCTYPE svg PUBLIC "-//W3C//DTD SVG 1.0//EN" "http://www.w3.org/TR/2001/REC-SVG-20010904/DTD/svg10.dtd">
<svg version="1.0" id="Layer_1" xmlns="http://www.w3.org/2000/svg" xmlns:xlink="http://www.w3.org/1999/xlink" x="0px" y="0px"
	 width="32px" height="32px" viewBox="0 0 32 32" enable-background="new 0 0 32 32" xml:space="preserve">
<path fill="#434854" d="M16.042,0C11.627,0,7.401,1.922,4.37,5.078c0,0-0.641,0.688-0.031,1.281l1.422,1.328
	c0.672,0.703,1.438,0.031,1.438,0.031C9.37,5.548,12.276,4,16.042,4c6.627,0,12,5.373,12,12s-5.373,12-12,12
	c-3.313,0-6.313-1.344-8.485-3.515c1.936-1.936,3.666-3.666,3.985-3.985c0.751-0.751,0.734-1.5-0.5-1.5c-0.978,0-10,0-10,0
	c-0.553,0-1,0.447-1,1c0,0,0,8.75,0,10s0.781,1.219,1.5,0.5c0.264-0.264,1.586-1.586,3.187-3.187C7.624,30.209,11.624,32,16.042,32
	c8.837,0,16-7.163,16-16S24.879,0,16.042,0z"/>
<g>
</g>
<g>
</g>
<g>
</g>
<g>
</g>
<g>
</g>
<g>
</g>
</svg>
