<?xml version="1.0" encoding="utf-8"?>
<!-- Generator: Adobe Illustrator 16.0.0, SVG Export Plug-In . SVG Version: 6.00 Build 0)  -->
<!DOCTYPE svg PUBLIC "-//W3C//DTD SVG 1.0//EN" "http://www.w3.org/TR/2001/REC-SVG-20010904/DTD/svg10.dtd">
<svg version="1.0" id="Layer_1" xmlns="http://www.w3.org/2000/svg" xmlns:xlink="http://www.w3.org/1999/xlink" x="0px" y="0px"
	 width="32px" height="32px" viewBox="0 0 32 32" enable-background="new 0 0 32 32" xml:space="preserve">
<g>
	<path fill="#434854" d="M31,14.528l-5-4.993c-0.836-0.835-2-0.655-2,0.499V14h-4c-0.553,0-1,0.447-1,1v2c0,0.553,0.447,1,1,1h4
		v4.02c0,0.843,1.219,1.488,2.012,0.489L31,17.525c0.625-0.625,1-0.946,1-1.499C32,15.475,31.615,15.144,31,14.528z"/>
	<path fill="#434854" d="M13,17v-2c0-0.553-0.447-0.993-1-0.993H8V9.996c0-0.843-1.219-1.488-2.012-0.489L1,14.49
		c-0.625,0.625-1,0.946-1,1.499c0,0.552,0.385,0.883,1,1.498l5,4.993c0.836,0.835,2,0.655,2-0.499V18h4C12.553,18,13,17.553,13,17z"
		/>
	<path fill="#434854" d="M21.974,24.008h-3.966v-4c0-0.553-0.447-1-1-1h-2c-0.553,0-1,0.447-1,1v4h-4.02
		c-0.843,0-1.488,1.219-0.489,2.012l4.983,4.988c0.625,0.625,0.946,1,1.499,1c0.552,0,0.883-0.385,1.498-1l4.993-5
		C23.308,25.172,23.128,24.008,21.974,24.008z"/>
	<path fill="#434854" d="M10.026,8.008h3.981V12c0,0.553,0.447,1,1,1h2c0.553,0,0.993-0.447,0.993-1V8.008h4.011
		c0.843,0,1.488-1.219,0.489-2.012l-4.983-4.988c-0.625-0.625-0.946-1-1.499-1c-0.552,0-0.883,0.385-1.498,1l-4.993,5
		C8.692,6.844,8.872,8.008,10.026,8.008z"/>
</g>
<g>
</g>
<g>
</g>
<g>
</g>
<g>
</g>
<g>
</g>
<g>
</g>
</svg>
