<?xml version="1.0" encoding="utf-8"?>
<!-- Generator: Adobe Illustrator 16.0.0, SVG Export Plug-In . SVG Version: 6.00 Build 0)  -->
<!DOCTYPE svg PUBLIC "-//W3C//DTD SVG 1.0//EN" "http://www.w3.org/TR/2001/REC-SVG-20010904/DTD/svg10.dtd">
<svg version="1.0" id="Layer_1" xmlns="http://www.w3.org/2000/svg" xmlns:xlink="http://www.w3.org/1999/xlink" x="0px" y="0px"
	 width="32px" height="32px" viewBox="0 0 32 32" enable-background="new 0 0 32 32" xml:space="preserve">
<g>
	<path fill="#434854" d="M10.042,17v-2c0-0.553-0.447-1-1-1h-8c-0.553,0-1,0.447-1,1v2c0,0.553,0.447,1,1,1h8
		C9.595,18,10.042,17.553,10.042,17z"/>
	<path fill="#434854" d="M31.042,14h-8c-0.553,0-1,0.447-1,1v2c0,0.553,0.447,1,1,1h8c0.553,0,1-0.447,1-1v-2
		C32.042,14.447,31.595,14,31.042,14z"/>
	<path fill="#434854" d="M15.042,10h2c0.553,0,1-0.447,1-1V1c0-0.553-0.447-1-1-1h-2c-0.553,0-1,0.447-1,1v8
		C14.042,9.553,14.489,10,15.042,10z"/>
	<path fill="#434854" d="M17.042,22h-2c-0.553,0-1,0.447-1,1v8c0,0.553,0.447,1,1,1h2c0.553,0,1-0.447,1-1v-8
		C18.042,22.447,17.595,22,17.042,22z"/>
	<path fill="#434854" d="M9.678,12.465c0.392,0.391,1.023,0.391,1.415,0l1.414-1.414c0.391-0.391,0.391-1.023,0-1.414L6.85,3.979
		c-0.392-0.392-1.023-0.391-1.414,0L4.021,5.394C3.63,5.785,3.63,6.417,4.021,6.809L9.678,12.465z"/>
	<path fill="#434854" d="M22.405,19.535c-0.391-0.391-1.023-0.391-1.414,0l-1.414,1.414c-0.391,0.392-0.391,1.024,0,1.415
		l5.657,5.657c0.391,0.391,1.023,0.391,1.415,0l1.414-1.414c0.391-0.391,0.391-1.023,0-1.414L22.405,19.535z"/>
	<path fill="#434854" d="M20.991,12.465c0.392,0.391,1.023,0.391,1.414,0l5.657-5.657c0.391-0.391,0.392-1.022,0-1.414l-1.414-1.414
		c-0.391-0.391-1.023-0.391-1.414,0l-5.657,5.657c-0.391,0.391-0.391,1.023,0,1.414L20.991,12.465z"/>
	<path fill="#434854" d="M11.093,19.535c-0.391-0.391-1.023-0.391-1.414,0l-5.658,5.658c-0.391,0.391-0.391,1.023,0,1.414
		l1.414,1.414c0.392,0.391,1.023,0.391,1.414,0l5.658-5.658c0.391-0.391,0.391-1.022,0-1.414L11.093,19.535z"/>
	<circle fill="#434854" cx="16.042" cy="16" r="4"/>
</g>
<g>
</g>
<g>
</g>
<g>
</g>
<g>
</g>
<g>
</g>
<g>
</g>
</svg>
