<?xml version="1.0" encoding="utf-8"?>
<!-- Generator: Adobe Illustrator 16.0.0, SVG Export Plug-In . SVG Version: 6.00 Build 0)  -->
<!DOCTYPE svg PUBLIC "-//W3C//DTD SVG 1.0//EN" "http://www.w3.org/TR/2001/REC-SVG-20010904/DTD/svg10.dtd">
<svg version="1.0" id="Layer_1" xmlns="http://www.w3.org/2000/svg" xmlns:xlink="http://www.w3.org/1999/xlink" x="0px" y="0px"
	 width="32px" height="32px" viewBox="0 0 32 32" enable-background="new 0 0 32 32" xml:space="preserve">
<g>
	<path fill="#434854" d="M10.042,17v-2c0-0.553-0.447-1-1-1h-6c-0.553,0-1,0.447-1,1v2c0,0.553,0.447,1,1,1h6
		C9.595,18,10.042,17.553,10.042,17z"/>
	<path fill="#434854" d="M29.042,14h-6c-0.553,0-1,0.447-1,1v2c0,0.553,0.447,1,1,1h6c0.553,0,1-0.447,1-1v-2
		C30.042,14.447,29.595,14,29.042,14z"/>
	<path fill="#434854" d="M15.042,10h2c0.553,0,1-0.447,1-1V3c0-0.553-0.447-1-1-1h-2c-0.553,0-1,0.447-1,1v6
		C14.042,9.553,14.489,10,15.042,10z"/>
	<path fill="#434854" d="M17.042,22h-2c-0.553,0-1,0.447-1,1v6c0,0.553,0.447,1,1,1h2c0.553,0,1-0.447,1-1v-6
		C18.042,22.447,17.595,22,17.042,22z"/>
	<path fill="#434854" d="M9.678,12.465c0.391,0.391,1.023,0.391,1.415-0.001l1.414-1.414c0.391-0.391,0.391-1.023,0-1.414
		L8.264,5.394c-0.391-0.391-1.023-0.391-1.414,0L5.436,6.808C5.044,7.198,5.044,7.831,5.435,8.222L9.678,12.465z"/>
	<path fill="#434854" d="M22.405,19.536c-0.391-0.391-1.023-0.391-1.414,0l-1.414,1.414c-0.391,0.391-0.391,1.023,0,1.414
		l4.242,4.242c0.392,0.392,1.023,0.391,1.415,0l1.414-1.414c0.391-0.391,0.392-1.023,0-1.414L22.405,19.536z"/>
	<path fill="#434854" d="M20.991,12.464c0.392,0.392,1.023,0.392,1.414,0l4.243-4.242c0.391-0.391,0.392-1.023,0-1.414l-1.414-1.414
		c-0.392-0.391-1.023-0.391-1.414,0l-4.243,4.242c-0.391,0.392-0.391,1.023,0,1.414L20.991,12.464z"/>
	<path fill="#434854" d="M11.093,19.536c-0.392-0.392-1.023-0.391-1.414,0l-4.243,4.242c-0.392,0.391-0.392,1.023,0,1.414
		l1.414,1.414c0.392,0.391,1.022,0.391,1.414,0l4.243-4.242c0.391-0.391,0.391-1.023,0-1.414L11.093,19.536z"/>
	<circle fill="#434854" cx="16.042" cy="16" r="4"/>
</g>
<g>
</g>
<g>
</g>
<g>
</g>
<g>
</g>
<g>
</g>
<g>
</g>
</svg>
