<?xml version="1.0" encoding="utf-8"?>
<!-- Generator: Adobe Illustrator 16.0.0, SVG Export Plug-In . SVG Version: 6.00 Build 0)  -->
<!DOCTYPE svg PUBLIC "-//W3C//DTD SVG 1.0//EN" "http://www.w3.org/TR/2001/REC-SVG-20010904/DTD/svg10.dtd">
<svg version="1.0" id="Layer_1" xmlns="http://www.w3.org/2000/svg" xmlns:xlink="http://www.w3.org/1999/xlink" x="0px" y="0px"
	 width="32px" height="32px" viewBox="0 0 32 32" enable-background="new 0 0 32 32" xml:space="preserve">
<g>
	<circle fill="#EACA44" cx="16.042" cy="16" r="16"/>
	<path opacity="0.1" d="M16.042,32c8.837,0,16-7.163,16-16s-7.163-16-16-16s-16,7.163-16,16S7.205,32,16.042,32z M16.042,2
		c7.732,0,14,6.268,14,14s-6.268,14-14,14s-14-6.268-14-14S8.31,2,16.042,2z"/>
	<g>
		<path fill="#434854" d="M19.042,22h-1v-9c0-0.553-0.447-1-1-1h-2h-1c-0.553,0-1,0.447-1,1v1c0,0.553,0.447,1,1,1h1v7h-1
			c-0.553,0-1,0.447-1,1v1c0,0.553,0.447,1,1,1h5c0.553,0,1-0.447,1-1v-1C20.042,22.447,19.595,22,19.042,22z"/>
		<circle fill="#434854" cx="16.042" cy="9" r="2"/>
	</g>
</g>
<g>
</g>
<g>
</g>
<g>
</g>
<g>
</g>
<g>
</g>
<g>
</g>
</svg>
