<?xml version="1.0" encoding="utf-8"?>
<!-- Generator: Adobe Illustrator 16.0.0, SVG Export Plug-In . SVG Version: 6.00 Build 0)  -->
<!DOCTYPE svg PUBLIC "-//W3C//DTD SVG 1.0//EN" "http://www.w3.org/TR/2001/REC-SVG-20010904/DTD/svg10.dtd">
<svg version="1.0" id="Layer_1" xmlns="http://www.w3.org/2000/svg" xmlns:xlink="http://www.w3.org/1999/xlink" x="0px" y="0px"
	 width="32px" height="32px" viewBox="0 0 32 32" enable-background="new 0 0 32 32" xml:space="preserve">
<g>
	<path fill="#469FCC" d="M28.816,16.703C28.924,16.317,29,15.92,29,15.5c0-2.485-2.015-4.5-4.5-4.5
		c-0.281,0-0.555,0.033-0.822,0.083C22.607,7.009,18.911,4,14.5,4C9.252,4,5,8.252,5,13.5c0,0.265,0.019,0.524,0.039,0.783
		C2.129,15.132,0,17.815,0,21c0,3.866,3.134,7,7,7h19c3.314,0,6-2.686,6-6C32,19.704,30.71,17.712,28.816,16.703z"/>
	<path fill="#FFFFFF" d="M21.594,15.5l-5.08-5.08c-0.562-0.561-1.471-0.561-2.032,0l-4.996,4.996
		c-0.561,0.561-0.673,1.583-0.112,2.145c0.562,0.562,1.409,0.626,1.971,0.064L14,14.968V22.5c0,0.828,0.672,1.5,1.5,1.5
		s1.5-0.672,1.5-1.5v-7.528l2.693,2.694c0.561,0.562,1.323,0.411,1.885-0.15C22.139,16.954,22.154,16.062,21.594,15.5z"/>
</g>
<g>
</g>
<g>
</g>
<g>
</g>
<g>
</g>
<g>
</g>
<g>
</g>
</svg>
