<?xml version="1.0" encoding="utf-8"?>
<!-- Generator: Adobe Illustrator 16.0.0, SVG Export Plug-In . SVG Version: 6.00 Build 0)  -->
<!DOCTYPE svg PUBLIC "-//W3C//DTD SVG 1.0//EN" "http://www.w3.org/TR/2001/REC-SVG-20010904/DTD/svg10.dtd">
<svg version="1.0" id="Layer_1" xmlns="http://www.w3.org/2000/svg" xmlns:xlink="http://www.w3.org/1999/xlink" x="0px" y="0px"
	 width="32px" height="32px" viewBox="0 0 32 32" enable-background="new 0 0 32 32" xml:space="preserve">
<g>
	<path fill="#EF4D4D" d="M28.858,16.703c0.107-0.386,0.184-0.783,0.184-1.203c0-2.485-2.015-4.5-4.5-4.5
		c-0.281,0-0.555,0.033-0.822,0.083C22.649,7.009,18.953,4,14.542,4c-5.248,0-9.5,4.252-9.5,9.5c0,0.265,0.019,0.524,0.039,0.783
		C2.171,15.132,0.042,17.815,0.042,21c0,3.866,3.134,7,7,7h19c3.314,0,6-2.686,6-6C32.042,19.704,30.752,17.712,28.858,16.703z"/>
	<path fill="#FFFFFF" d="M18.071,18.004l2.542-2.541c0.561-0.562,0.561-1.473,0-2.034c-0.562-0.561-1.472-0.561-2.034,0
		l-2.541,2.542l-2.541-2.542c-0.562-0.561-1.473-0.561-2.034,0c-0.561,0.562-0.561,1.472,0,2.034l2.543,2.541l-2.543,2.541
		c-0.561,0.562-0.561,1.473,0,2.034c0.562,0.561,1.472,0.561,2.034,0l2.541-2.542l2.541,2.542c0.562,0.561,1.473,0.561,2.034,0
		c0.561-0.562,0.561-1.472,0-2.034L18.071,18.004z"/>
</g>
<g>
</g>
<g>
</g>
<g>
</g>
<g>
</g>
<g>
</g>
<g>
</g>
</svg>
