<?xml version="1.0" encoding="utf-8"?>
<!-- Generator: Adobe Illustrator 16.0.0, SVG Export Plug-In . SVG Version: 6.00 Build 0)  -->
<!DOCTYPE svg PUBLIC "-//W3C//DTD SVG 1.0//EN" "http://www.w3.org/TR/2001/REC-SVG-20010904/DTD/svg10.dtd">
<svg version="1.0" id="Layer_1" xmlns="http://www.w3.org/2000/svg" xmlns:xlink="http://www.w3.org/1999/xlink" x="0px" y="0px"
	 width="32px" height="32px" viewBox="0 0 32 32" enable-background="new 0 0 32 32" xml:space="preserve">
<g>
	<path fill="#3AAD73" d="M28.816,15.703C28.924,15.317,29,14.92,29,14.5c0-2.485-2.015-4.5-4.5-4.5
		c-0.281,0-0.555,0.033-0.822,0.083C22.607,6.009,18.911,3,14.5,3C9.252,3,5,7.252,5,12.5c0,0.265,0.019,0.524,0.039,0.783
		C2.129,14.132,0,16.815,0,20c0,3.866,3.134,7,7,7h19c3.314,0,6-2.686,6-6C32,18.704,30.71,16.712,28.816,15.703z"/>
	<path fill="#FFFFFF" d="M21.545,12.386c-0.586-0.586-1.61-0.512-2.197,0.075l-4.898,4.898l-1.92-1.919
		c-0.585-0.587-1.593-0.644-2.179-0.057c-0.587,0.586-0.476,1.648,0.111,2.234l2.926,2.926c0.586,0.586,1.536,0.586,2.123,0
		l6.063-6.064C22.16,13.894,22.132,12.972,21.545,12.386z"/>
</g>
<g>
</g>
<g>
</g>
<g>
</g>
<g>
</g>
<g>
</g>
<g>
</g>
</svg>
