<?xml version="1.0" encoding="utf-8"?>
<!-- Generator: Adobe Illustrator 16.0.0, SVG Export Plug-In . SVG Version: 6.00 Build 0)  -->
<!DOCTYPE svg PUBLIC "-//W3C//DTD SVG 1.0//EN" "http://www.w3.org/TR/2001/REC-SVG-20010904/DTD/svg10.dtd">
<svg version="1.0" id="Layer_1" xmlns="http://www.w3.org/2000/svg" xmlns:xlink="http://www.w3.org/1999/xlink" x="0px" y="0px"
	 width="32px" height="32px" viewBox="0 0 32 32" enable-background="new 0 0 32 32" xml:space="preserve">
<g>
	<path fill="#EACA44" d="M26,4H2C0.896,4,0,4.896,0,6v26l8-8h18c1.104,0,2-0.896,2-2V6C28,4.896,27.104,4,26,4z"/>
	<path fill="#EACA44" d="M30,0H6C4.896,0,4,0.896,4,2h24c1.104,0,2,0.896,2,2v16c1.104,0,2-0.896,2-2V2C32,0.896,31.104,0,30,0z"/>
	<g opacity="0.1">
		<path d="M7.002,11h14c0.553,0,1-0.447,1-1s-0.447-1-1-1h-14c-0.553,0-1,0.447-1,1S6.449,11,7.002,11z"/>
		<path d="M21.002,13h-14c-0.553,0-1,0.447-1,1s0.447,1,1,1h14c0.553,0,1-0.447,1-1S21.555,13,21.002,13z"/>
		<path d="M21.002,17h-14c-0.553,0-1,0.447-1,1s0.447,1,1,1h14c0.553,0,1-0.447,1-1S21.555,17,21.002,17z"/>
	</g>
</g>
<g>
</g>
<g>
</g>
<g>
</g>
<g>
</g>
<g>
</g>
<g>
</g>
</svg>
