<?xml version="1.0" encoding="utf-8"?>
<!-- Generator: Adobe Illustrator 16.0.0, SVG Export Plug-In . SVG Version: 6.00 Build 0)  -->
<!DOCTYPE svg PUBLIC "-//W3C//DTD SVG 1.0//EN" "http://www.w3.org/TR/2001/REC-SVG-20010904/DTD/svg10.dtd">
<svg version="1.0" id="Layer_1" xmlns="http://www.w3.org/2000/svg" xmlns:xlink="http://www.w3.org/1999/xlink" x="0px" y="0px"
	 width="32px" height="32px" viewBox="0 0 32 32" enable-background="new 0 0 32 32" xml:space="preserve">
<g>
	<path fill="#EACA44" d="M25,16c1.851,0,3.569,0.56,5,1.518V2c0-1.104-0.896-2-2-2H2C0.896,0,0,0.896,0,2v28l8-8h8.523
		C17.76,18.507,21.083,16,25,16z"/>
	<g opacity="0.1">
		<path d="M7.002,8h16c0.553,0,1-0.447,1-1s-0.447-1-1-1h-16c-0.553,0-1,0.447-1,1S6.449,8,7.002,8z"/>
		<path d="M23.002,10h-16c-0.553,0-1,0.447-1,1s0.447,1,1,1h16c0.553,0,1-0.447,1-1S23.555,10,23.002,10z"/>
		<path d="M23.002,14h-16c-0.553,0-1,0.447-1,1s0.447,1,1,1h16c0.553,0,1-0.447,1-1S23.555,14,23.002,14z"/>
	</g>
	<path fill="#EF4D4D" d="M25,18c-3.865,0-7,3.135-7,7s3.135,7,7,7s7-3.135,7-7S28.865,18,25,18z"/>
	<path fill="#FFFFFF" d="M29,24.999c0,0.553-0.447,1-1,1h-6c-0.553,0-1-0.447-1-1l0,0c0-0.553,0.447-1,1-1h6
		C28.553,23.999,29,24.446,29,24.999L29,24.999z"/>
</g>
<g>
</g>
<g>
</g>
<g>
</g>
<g>
</g>
<g>
</g>
<g>
</g>
</svg>
