<?xml version="1.0" encoding="utf-8"?>
<!-- Generator: Adobe Illustrator 16.0.0, SVG Export Plug-In . SVG Version: 6.00 Build 0)  -->
<!DOCTYPE svg PUBLIC "-//W3C//DTD SVG 1.0//EN" "http://www.w3.org/TR/2001/REC-SVG-20010904/DTD/svg10.dtd">
<svg version="1.0" id="Layer_1" xmlns="http://www.w3.org/2000/svg" xmlns:xlink="http://www.w3.org/1999/xlink" x="0px" y="0px"
	 width="32px" height="32px" viewBox="0 0 32 32" enable-background="new 0 0 32 32" xml:space="preserve">
<g>
	<path fill="#EACA44" d="M29.042,1h-26c-1.104,0-2,0.896-2,2v28l8-8h20c1.104,0,2-0.896,2-2V3C31.042,1.896,30.146,1,29.042,1z"/>
	<g opacity="0.1">
		<path d="M8.044,9h16c0.553,0,1-0.447,1-1s-0.447-1-1-1h-16c-0.553,0-1,0.447-1,1S7.491,9,8.044,9z"/>
		<path d="M24.044,11h-16c-0.553,0-1,0.447-1,1s0.447,1,1,1h16c0.553,0,1-0.447,1-1S24.597,11,24.044,11z"/>
		<path d="M24.044,15h-16c-0.553,0-1,0.447-1,1s0.447,1,1,1h16c0.553,0,1-0.447,1-1S24.597,15,24.044,15z"/>
	</g>
</g>
<g>
</g>
<g>
</g>
<g>
</g>
<g>
</g>
<g>
</g>
<g>
</g>
</svg>
