<?xml version="1.0" encoding="utf-8"?>
<!-- Generator: Adobe Illustrator 16.0.0, SVG Export Plug-In . SVG Version: 6.00 Build 0)  -->
<!DOCTYPE svg PUBLIC "-//W3C//DTD SVG 1.0//EN" "http://www.w3.org/TR/2001/REC-SVG-20010904/DTD/svg10.dtd">
<svg version="1.0" id="Layer_1" xmlns="http://www.w3.org/2000/svg" xmlns:xlink="http://www.w3.org/1999/xlink" x="0px" y="0px"
	 width="32px" height="32px" viewBox="0 0 32 32" enable-background="new 0 0 32 32" xml:space="preserve">
<g>
	<path fill="#EACA44" d="M24.998,16c1.851,0,3.569,0.56,5,1.518V2c0-1.104-0.896-2-2-2h-26c-1.104,0-2,0.896-2,2v28l8-8h8.523
		C17.758,18.507,21.081,16,24.998,16z"/>
	<g opacity="0.1">
		<path d="M7,8h16c0.553,0,1-0.447,1-1s-0.447-1-1-1H7C6.447,6,6,6.447,6,7S6.447,8,7,8z"/>
		<path d="M23,10H7c-0.553,0-1,0.447-1,1s0.447,1,1,1h16c0.553,0,1-0.447,1-1S23.553,10,23,10z"/>
		<path d="M23,14H7c-0.553,0-1,0.447-1,1s0.447,1,1,1h16c0.553,0,1-0.447,1-1S23.553,14,23,14z"/>
	</g>
	<path fill="#469FCC" d="M25,18c-3.865,0-7,3.135-7,7s3.135,7,7,7s7-3.135,7-7S28.865,18,25,18z"/>
	<g>
		<path fill="#FFFFFF" d="M27.805,23.194l-1.008-0.992c-0.271-0.271-0.75-0.25-0.992-0.008L23,24.999l2,2l2.805-2.805
			C28.068,23.931,28.077,23.467,27.805,23.194z"/>
		<polygon fill="#FFFFFF" points="22,27.999 24,27.999 22,25.999 		"/>
	</g>
</g>
<g>
</g>
<g>
</g>
<g>
</g>
<g>
</g>
<g>
</g>
<g>
</g>
</svg>
