<?xml version="1.0" encoding="utf-8"?>
<!-- Generator: Adobe Illustrator 16.0.0, SVG Export Plug-In . SVG Version: 6.00 Build 0)  -->
<!DOCTYPE svg PUBLIC "-//W3C//DTD SVG 1.0//EN" "http://www.w3.org/TR/2001/REC-SVG-20010904/DTD/svg10.dtd">
<svg version="1.0" id="Layer_1" xmlns="http://www.w3.org/2000/svg" xmlns:xlink="http://www.w3.org/1999/xlink" x="0px" y="0px"
	 width="32px" height="32px" viewBox="0 0 32 32" enable-background="new 0 0 32 32" xml:space="preserve">
<g>
	<path fill="#DAE2E5" d="M21.042,15h-4V8h-2v7h-4c-4.418,0-8,3.582-8,8v1h2v-1c0-3.313,2.687-6,6-6h4v7h2v-7h4c3.313,0,6,2.687,6,6
		v1h2v-1C29.042,18.582,25.46,15,21.042,15z"/>
	<path fill="#434854" d="M8.042,25.5c0-0.828-0.672-1.5-1.5-1.5h-5c-0.828,0-1.5,0.672-1.5,1.5v5c0,0.828,0.672,1.5,1.5,1.5h5
		c0.828,0,1.5-0.672,1.5-1.5V25.5z"/>
	<path fill="#434854" d="M32.042,25.5c0-0.828-0.672-1.5-1.5-1.5h-5c-0.828,0-1.5,0.672-1.5,1.5v5c0,0.828,0.672,1.5,1.5,1.5h5
		c0.828,0,1.5-0.672,1.5-1.5V25.5z"/>
	<path fill="#434854" d="M20.042,25.5c0-0.828-0.672-1.5-1.5-1.5h-5c-0.828,0-1.5,0.672-1.5,1.5v5c0,0.828,0.672,1.5,1.5,1.5h5
		c0.828,0,1.5-0.672,1.5-1.5V25.5z"/>
	<path fill="#434854" d="M20.042,1.5c0-0.828-0.672-1.5-1.5-1.5h-5c-0.828,0-1.5,0.672-1.5,1.5v5c0,0.828,0.672,1.5,1.5,1.5h5
		c0.828,0,1.5-0.672,1.5-1.5V1.5z"/>
	<g opacity="0.1">
		<rect x="15.042" y="23" width="2" height="1"/>
		<rect x="27.042" y="23" width="2" height="1"/>
		<rect x="3.042" y="23" width="2" height="1"/>
		<rect x="15.042" y="8" width="2" height="1"/>
	</g>
</g>
<g>
</g>
<g>
</g>
<g>
</g>
<g>
</g>
<g>
</g>
<g>
</g>
</svg>
