<?xml version="1.0" encoding="utf-8"?>
<!-- Generator: Adobe Illustrator 16.0.0, SVG Export Plug-In . SVG Version: 6.00 Build 0)  -->
<!DOCTYPE svg PUBLIC "-//W3C//DTD SVG 1.0//EN" "http://www.w3.org/TR/2001/REC-SVG-20010904/DTD/svg10.dtd">
<svg version="1.0" id="Layer_1" xmlns="http://www.w3.org/2000/svg" xmlns:xlink="http://www.w3.org/1999/xlink" x="0px" y="0px"
	 width="32px" height="32px" viewBox="0 0 32 32" enable-background="new 0 0 32 32" xml:space="preserve">
<g>
	<path fill="#DAE2E5" d="M31.042,29c0,1.104-0.896,2-2,2h-26c-1.104,0-2-0.896-2-2V3c0-1.104,0.896-2,2-2h26c1.104,0,2,0.896,2,2V29
		z"/>
	<polygon fill="#FFFFFF" points="31.042,7 1.042,7 1.042,9 7.042,9 7.042,31 9.042,31 9.042,9 23.042,9 23.042,31 25.042,31 
		25.042,9 31.042,9 	"/>
	<path fill="#434854" d="M31.042,7V3c0-1.104-0.896-2-2-2h-26c-1.104,0-2,0.896-2,2v4H31.042z"/>
</g>
<g>
</g>
<g>
</g>
<g>
</g>
<g>
</g>
<g>
</g>
<g>
</g>
</svg>
