<?xml version="1.0" encoding="utf-8"?>
<!-- Generator: Adobe Illustrator 16.0.0, SVG Export Plug-In . SVG Version: 6.00 Build 0)  -->
<!DOCTYPE svg PUBLIC "-//W3C//DTD SVG 1.0//EN" "http://www.w3.org/TR/2001/REC-SVG-20010904/DTD/svg10.dtd">
<svg version="1.0" id="Layer_1" xmlns="http://www.w3.org/2000/svg" xmlns:xlink="http://www.w3.org/1999/xlink" x="0px" y="0px"
	 width="32px" height="32px" viewBox="0 0 32 32" enable-background="new 0 0 32 32" xml:space="preserve">
<g>
	<g>
		<path fill="#EF4D4D" d="M16.042,5.441c-0.213-0.271-0.437-0.536-0.684-0.787c-3.504-3.539-9.184-3.539-12.688,0
			c-3.505,3.539-3.505,9.278-0.001,12.817l13.372,13.507V5.441z"/>
	</g>
	<path fill="#EAEAEA" d="M29.455,4.654c-3.503-3.539-9.183-3.539-12.687,0c-0.256,0.259-0.487,0.531-0.705,0.812
		c-0.007-0.009-0.015-0.017-0.021-0.024v25.537L16.063,31c0,0,13.155-13.288,13.392-13.528C32.96,13.933,32.96,8.193,29.455,4.654z"
		/>
	<path opacity="0.6" fill="#FFFFFF" d="M23.551,4h-0.5c-0.553,0-1,0.447-1,1s0.447,1,1,1h0.5c2.485,0,4.5,2.015,4.5,4.5V11
		c0,0.553,0.447,1,1,1s1-0.447,1-1v-0.5C30.051,6.91,27.141,4,23.551,4z"/>
</g>
<g>
</g>
<g>
</g>
<g>
</g>
<g>
</g>
<g>
</g>
<g>
</g>
</svg>
