<?xml version="1.0" encoding="utf-8"?>
<!-- Generator: Adobe Illustrator 16.0.0, SVG Export Plug-In . SVG Version: 6.00 Build 0)  -->
<!DOCTYPE svg PUBLIC "-//W3C//DTD SVG 1.0//EN" "http://www.w3.org/TR/2001/REC-SVG-20010904/DTD/svg10.dtd">
<svg version="1.0" id="Layer_1" xmlns="http://www.w3.org/2000/svg" xmlns:xlink="http://www.w3.org/1999/xlink" x="0px" y="0px"
	 width="32px" height="32px" viewBox="0 0 32 32" enable-background="new 0 0 32 32" xml:space="preserve">
<g>
	<path fill="#EF4D4D" d="M16,25c0-4.97,4.03-9,9-9c1.154,0,2.253,0.226,3.267,0.621c0.67-0.677,1.097-1.108,1.138-1.149
		c3.505-3.539,3.505-9.278,0-12.817c-3.503-3.539-9.183-3.539-12.687,0c-0.256,0.259-0.487,0.531-0.705,0.812
		c-0.219-0.28-0.45-0.553-0.705-0.812c-3.504-3.539-9.184-3.539-12.688,0c-3.505,3.539-3.505,9.278-0.001,12.817L16.013,29
		c0,0,0.237-0.239,0.64-0.646C16.235,27.316,16,26.187,16,25z"/>
	<path opacity="0.15" fill="#FFFFFF" d="M23.5,2H23c-0.553,0-1,0.447-1,1s0.447,1,1,1h0.5C25.985,4,28,6.015,28,8.5V9
		c0,0.553,0.447,1,1,1s1-0.447,1-1V8.5C30,4.91,27.09,2,23.5,2z"/>
	<circle fill="#3AAD73" cx="25.044" cy="25" r="7"/>
	<path fill="#FFFFFF" d="M28.044,23.999h-2v-2c0-0.553-0.447-1-1-1s-1,0.447-1,1v2h-2c-0.553,0-1,0.447-1,1s0.447,1,1,1h2v2
		c0,0.553,0.447,1,1,1s1-0.447,1-1v-2h2c0.553,0,1-0.447,1-1S28.597,23.999,28.044,23.999z"/>
</g>
<g>
</g>
<g>
</g>
<g>
</g>
<g>
</g>
<g>
</g>
<g>
</g>
</svg>
