<?xml version="1.0" encoding="utf-8"?>
<!-- Generator: Adobe Illustrator 16.0.0, SVG Export Plug-In . SVG Version: 6.00 Build 0)  -->
<!DOCTYPE svg PUBLIC "-//W3C//DTD SVG 1.0//EN" "http://www.w3.org/TR/2001/REC-SVG-20010904/DTD/svg10.dtd">
<svg version="1.0" id="Layer_1" xmlns="http://www.w3.org/2000/svg" xmlns:xlink="http://www.w3.org/1999/xlink" x="0px" y="0px"
	 width="32px" height="32px" viewBox="0 0 32 32" enable-background="new 0 0 32 32" xml:space="preserve">
<g>
	<path fill="#EF4D4D" d="M29.455,4.654c-3.503-3.539-9.183-3.539-12.687,0c-0.256,0.259-0.487,0.531-0.705,0.812
		c-0.219-0.28-0.45-0.553-0.705-0.812c-3.504-3.539-9.184-3.539-12.688,0c-3.505,3.539-3.505,9.278-0.001,12.817L16.063,31
		c0,0,13.155-13.288,13.392-13.528C32.96,13.933,32.96,8.193,29.455,4.654z"/>
	<path opacity="0.15" fill="#FFFFFF" d="M23.551,4h-0.5c-0.553,0-1,0.447-1,1s0.447,1,1,1h0.5c2.485,0,4.5,2.015,4.5,4.5V11
		c0,0.553,0.447,1,1,1s1-0.447,1-1v-0.5C30.051,6.91,27.141,4,23.551,4z"/>
	<g>
		<polygon fill="#EACA44" points="0.084,6 5.084,11 7.619,10.121 2.67,5.172 		"/>
		<polygon fill="#EACA44" points="4.084,2 3.256,4.586 8.205,9.535 9.084,7 		"/>
	</g>
	<circle opacity="0.15" cx="13.084" cy="15" r="1"/>
	<path fill="#434854" d="M13.338,14.545L0.958,2.166C0.762,1.969,0.422,1.945,0.226,2.143C0.029,2.338,0.093,2.718,0.29,2.915
		l12.339,12.339c0.196,0.196,0.513,0.196,0.709,0S13.534,14.741,13.338,14.545z"/>
	<path fill="#434854" d="M22.893,24.102c-0.234,0.237-0.469,0.475-0.703,0.711l2.142,2.141c0.196,0.196,0.537,0.222,0.732,0.025
		c0.196-0.195,0.161-0.546-0.035-0.742L22.893,24.102z"/>
	<path fill="#EACA44" d="M25.542,28.001c0.317,0,0.5-0.25,0.5-0.5v-3.5l-4,4H25.542z"/>
</g>
<g>
</g>
<g>
</g>
<g>
</g>
<g>
</g>
<g>
</g>
<g>
</g>
</svg>
