<?xml version="1.0" encoding="utf-8"?>
<!-- Generator: Adobe Illustrator 16.0.0, SVG Export Plug-In . SVG Version: 6.00 Build 0)  -->
<!DOCTYPE svg PUBLIC "-//W3C//DTD SVG 1.0//EN" "http://www.w3.org/TR/2001/REC-SVG-20010904/DTD/svg10.dtd">
<svg version="1.0" id="Layer_1" xmlns="http://www.w3.org/2000/svg" xmlns:xlink="http://www.w3.org/1999/xlink" x="0px" y="0px"
	 width="32px" height="32px" viewBox="0 0 32 32" enable-background="new 0 0 32 32" xml:space="preserve">
<g>
	<path fill="#EF4D4D" d="M16.009,25c0-4.97,4.03-9,9-9c1.154,0,2.253,0.226,3.267,0.621c0.67-0.677,1.097-1.108,1.138-1.149
		c3.505-3.539,3.505-9.278,0-12.817c-3.503-3.539-9.183-3.539-12.687,0c-0.256,0.259-0.487,0.531-0.705,0.812
		c-0.219-0.28-0.45-0.553-0.705-0.812c-3.504-3.539-9.184-3.539-12.688,0c-3.505,3.539-3.505,9.278-0.001,12.817L16.021,29
		c0,0,0.237-0.239,0.64-0.646C16.244,27.316,16.009,26.187,16.009,25z"/>
	<path opacity="0.15" fill="#FFFFFF" d="M23.509,2h-0.5c-0.553,0-1,0.447-1,1s0.447,1,1,1h0.5c2.485,0,4.5,2.015,4.5,4.5V9
		c0,0.553,0.447,1,1,1s1-0.447,1-1V8.5C30.009,4.91,27.099,2,23.509,2z"/>
	<path fill="#EF4D4D" d="M25.044,18c-3.865,0-7,3.135-7,7s3.135,7,7,7s7-3.135,7-7S28.909,18,25.044,18z"/>
	<path fill="#FFFFFF" d="M29.044,24.999c0,0.553-0.447,1-1,1h-6c-0.553,0-1-0.447-1-1l0,0c0-0.553,0.447-1,1-1h6
		C28.597,23.999,29.044,24.446,29.044,24.999L29.044,24.999z"/>
</g>
<g>
</g>
<g>
</g>
<g>
</g>
<g>
</g>
<g>
</g>
<g>
</g>
</svg>
