<?xml version="1.0" encoding="utf-8"?>
<!-- Generator: Adobe Illustrator 16.0.0, SVG Export Plug-In . SVG Version: 6.00 Build 0)  -->
<!DOCTYPE svg PUBLIC "-//W3C//DTD SVG 1.0//EN" "http://www.w3.org/TR/2001/REC-SVG-20010904/DTD/svg10.dtd">
<svg version="1.0" id="Layer_1" xmlns="http://www.w3.org/2000/svg" xmlns:xlink="http://www.w3.org/1999/xlink" x="0px" y="0px"
	 width="32px" height="32px" viewBox="0 0 32 32" enable-background="new 0 0 32 32" xml:space="preserve">
<g>
	<path fill="#DAE2E5" d="M31.042,28.999c0,1.104-0.896,2-2,2h-26c-1.104,0-2-0.896-2-2v-26c0-1.104,0.896-2,2-2h26
		c1.104,0,2,0.896,2,2V28.999z"/>
	<polygon fill="#FFFFFF" points="31.042,8.999 31.042,6.999 1.042,6.999 1.042,8.999 15.042,8.999 15.042,23 1.042,23 1.042,25 
		31.042,25 31.042,23 17.042,23 17.042,8.999 	"/>
	<g>
		<path fill="#434854" d="M31.042,7V3c0-1.104-0.896-2-2-2h-26c-1.104,0-2,0.896-2,2v4H31.042z"/>
		<path fill="#434854" d="M1.042,25v4c0,1.104,0.896,2,2,2h26c1.104,0,2-0.896,2-2v-4H1.042z"/>
	</g>
</g>
<g>
</g>
<g>
</g>
<g>
</g>
<g>
</g>
<g>
</g>
<g>
</g>
</svg>
