<?xml version="1.0" encoding="utf-8"?>
<!-- Generator: Adobe Illustrator 16.0.0, SVG Export Plug-In . SVG Version: 6.00 Build 0)  -->
<!DOCTYPE svg PUBLIC "-//W3C//DTD SVG 1.0//EN" "http://www.w3.org/TR/2001/REC-SVG-20010904/DTD/svg10.dtd">
<svg version="1.0" id="Layer_1" xmlns="http://www.w3.org/2000/svg" xmlns:xlink="http://www.w3.org/1999/xlink" x="0px" y="0px"
	 width="32px" height="32px" viewBox="0 0 32 32" enable-background="new 0 0 32 32" xml:space="preserve">
<g>
	<path fill="#469FCC" d="M32.042,30c0,1.104-0.896,2-2,2h-28c-1.104,0-2-0.896-2-2V2c0-1.104,0.896-2,2-2h28c1.104,0,2,0.896,2,2V30
		z"/>
	<path opacity="0.1" d="M30.042,0h-28c-1.104,0-2,0.896-2,2v28c0,1.104,0.896,2,2,2h28c1.104,0,2-0.896,2-2V2
		C32.042,0.896,31.146,0,30.042,0z M30.042,30h-28V2h28V30z"/>
	<g>
		<path fill="#FFFFFF" d="M16.042,22h-1c-0.553,0-1,0.447-1,1v1c0,0.553,0.447,1,1,1h1c0.553,0,1-0.447,1-1v-1
			C17.042,22.447,16.595,22,16.042,22z"/>
		<path fill="#FFFFFF" d="M17.042,7h-2c-2.762,0-5,2.238-5,5c0,0.553,0.447,1,1,1h1c0.553,0,1-0.447,1-1c0-1.104,0.896-2,2-2h2
			c1.104,0,2,0.896,2,2v1.5c0,1.104-0.928,2.234-2,2.5c-1.937,0.479-3,2.343-3,4c0,0.553,0.447,1,1,1h1c0.553,0,1-0.447,1-1
			c0-2,5-2,5-6v-2C22.042,9.238,19.804,7,17.042,7z"/>
	</g>
	<path opacity="0.15" d="M30.042,0h-28c-1.104,0-2,0.896-2,2v28c0,1.104,0.896,2,2,2h28c1.104,0,2-0.896,2-2V2
		C32.042,0.896,31.146,0,30.042,0z M30.042,30h-28V2h28V30z"/>
</g>
<g>
</g>
<g>
</g>
<g>
</g>
<g>
</g>
<g>
</g>
<g>
</g>
</svg>
