<?xml version="1.0" encoding="utf-8"?>
<!-- Generator: Adobe Illustrator 16.0.0, SVG Export Plug-In . SVG Version: 6.00 Build 0)  -->
<!DOCTYPE svg PUBLIC "-//W3C//DTD SVG 1.0//EN" "http://www.w3.org/TR/2001/REC-SVG-20010904/DTD/svg10.dtd">
<svg version="1.0" id="Layer_1" xmlns="http://www.w3.org/2000/svg" xmlns:xlink="http://www.w3.org/1999/xlink" x="0px" y="0px"
	 width="32px" height="32px" viewBox="0 0 32 32" enable-background="new 0 0 32 32" xml:space="preserve">
<g>
	<path fill="#EF4D4D" d="M30.042,0c1.104,0,2,0.896,2,2v28c0,1.104-0.896,2-2,2h-28c-1.104,0-2-0.896-2-2V2c0-1.104,0.896-2,2-2
		H30.042z"/>
	<path opacity="0.15" d="M0.042,2v28c0,1.104,0.896,2,2,2h28c1.104,0,2-0.896,2-2V2c0-1.104-0.896-2-2-2h-28
		C0.938,0,0.042,0.896,0.042,2z M30.042,2v28h-28V2H30.042z"/>
	<path fill="#FFFFFF" d="M25.042,16c0,1.104-0.896,2-2,2h-14c-1.104,0-2-0.896-2-2l0,0c0-1.104,0.896-2,2-2h14
		C24.146,14,25.042,14.896,25.042,16L25.042,16z"/>
</g>
<g>
</g>
<g>
</g>
<g>
</g>
<g>
</g>
<g>
</g>
<g>
</g>
</svg>
