<?xml version="1.0" encoding="utf-8"?>
<!-- Generator: Adobe Illustrator 16.0.0, SVG Export Plug-In . SVG Version: 6.00 Build 0)  -->
<!DOCTYPE svg PUBLIC "-//W3C//DTD SVG 1.0//EN" "http://www.w3.org/TR/2001/REC-SVG-20010904/DTD/svg10.dtd">
<svg version="1.0" id="Layer_1" xmlns="http://www.w3.org/2000/svg" xmlns:xlink="http://www.w3.org/1999/xlink" x="0px" y="0px"
	 width="32px" height="32px" viewBox="0 0 32 32" enable-background="new 0 0 32 32" xml:space="preserve">
<g>
	<path fill="#EACA44" d="M32.042,30c0,1.104-0.896,2-2,2h-28c-1.104,0-2-0.896-2-2V2c0-1.104,0.896-2,2-2h28c1.104,0,2,0.896,2,2V30
		z"/>
	<path opacity="0.1" d="M30.042,0h-28c-1.104,0-2,0.896-2,2v28c0,1.104,0.896,2,2,2h28c1.104,0,2-0.896,2-2V2
		C32.042,0.896,31.146,0,30.042,0z M30.042,30h-28V2h28V30z"/>
	<g>
		<path fill="#434854" d="M19.042,22h-1v-9c0-0.553-0.447-1-1-1h-2h-1c-0.553,0-1,0.447-1,1v1c0,0.553,0.447,1,1,1h1v7h-1
			c-0.553,0-1,0.447-1,1v1c0,0.553,0.447,1,1,1h5c0.553,0,1-0.447,1-1v-1C20.042,22.447,19.595,22,19.042,22z"/>
		<circle fill="#434854" cx="16.042" cy="9" r="2"/>
	</g>
</g>
<g>
</g>
<g>
</g>
<g>
</g>
<g>
</g>
<g>
</g>
<g>
</g>
</svg>
