<?xml version="1.0" encoding="utf-8"?>
<!-- Generator: Adobe Illustrator 16.0.0, SVG Export Plug-In . SVG Version: 6.00 Build 0)  -->
<!DOCTYPE svg PUBLIC "-//W3C//DTD SVG 1.0//EN" "http://www.w3.org/TR/2001/REC-SVG-20010904/DTD/svg10.dtd">
<svg version="1.0" id="Layer_1" xmlns="http://www.w3.org/2000/svg" xmlns:xlink="http://www.w3.org/1999/xlink" x="0px" y="0px"
	 width="32px" height="32px" viewBox="0 0 32 32" enable-background="new 0 0 32 32" xml:space="preserve">
<g>
	<path fill="#EAEAEA" d="M24.044,8h-16c-4.418,0-8,3.582-8,8s3.582,8,8,8h16c4.418,0,8-3.582,8-8S28.462,8,24.044,8z"/>
	<path opacity="0.1" d="M8.044,9h16c4.249,0,7.716,3.316,7.975,7.5c0.011-0.166,0.025-0.331,0.025-0.5c0-4.418-3.582-8-8-8h-16
		c-4.418,0-8,3.582-8,8c0,0.169,0.015,0.334,0.025,0.5C0.328,12.316,3.795,9,8.044,9z"/>
	<circle fill="#3AAD73" cx="24.044" cy="16" r="6"/>
	<path opacity="0.1" d="M24.044,22c-3.145,0-5.72-2.421-5.975-5.5c-0.014,0.165-0.025,0.331-0.025,0.5c0,3.313,2.687,6,6,6
		s6-2.687,6-6c0-0.169-0.012-0.335-0.025-0.5C29.764,19.579,27.188,22,24.044,22z"/>
	<path opacity="0.1" d="M8.044,12c-2.209,0-4,1.791-4,4s1.791,4,4,4s4-1.791,4-4S10.253,12,8.044,12z M8.044,18
		c-1.104,0-2-0.896-2-2s0.896-2,2-2s2,0.896,2,2S9.148,18,8.044,18z"/>
</g>
<g>
</g>
<g>
</g>
<g>
</g>
<g>
</g>
<g>
</g>
<g>
</g>
</svg>
