<?xml version="1.0" encoding="utf-8"?>
<!-- Generator: Adobe Illustrator 16.0.0, SVG Export Plug-In . SVG Version: 6.00 Build 0)  -->
<!DOCTYPE svg PUBLIC "-//W3C//DTD SVG 1.0//EN" "http://www.w3.org/TR/2001/REC-SVG-20010904/DTD/svg10.dtd">
<svg version="1.0" id="Layer_1" xmlns="http://www.w3.org/2000/svg" xmlns:xlink="http://www.w3.org/1999/xlink" x="0px" y="0px"
	 width="32px" height="32px" viewBox="0 0 32 32" enable-background="new 0 0 32 32" xml:space="preserve">
<g>
	<path fill="#EAEAEA" d="M32.042,30c0,1.104-0.896,2-2,2h-28c-1.104,0-2-0.896-2-2V2c0-1.104,0.896-2,2-2h28c1.104,0,2,0.896,2,2V30
		z"/>
	<path opacity="0.1" d="M30.042,0h-28c-1.104,0-2,0.896-2,2v28c0,1.104,0.896,2,2,2h28c1.104,0,2-0.896,2-2V2
		C32.042,0.896,31.146,0,30.042,0z M30.042,30h-28V2h28V30z"/>
	<g>
		<path fill="#434854" d="M16.042,22c3.314,0,6-2.686,6-6V8c0-0.553-0.447-1-1-1h-1c-0.553,0-1,0.447-1,1v8c0,1.657-1.343,3-3,3
			s-3-1.343-3-3V8c0-0.553-0.447-1-1-1h-1c-0.553,0-1,0.447-1,1v8C10.042,19.314,12.728,22,16.042,22z"/>
		<path fill="#434854" d="M23.042,23h-14c-0.553,0-1,0.447-1,1s0.447,1,1,1h14c0.553,0,1-0.447,1-1S23.595,23,23.042,23z"/>
	</g>
</g>
<g>
</g>
<g>
</g>
<g>
</g>
<g>
</g>
<g>
</g>
<g>
</g>
</svg>
