<?xml version="1.0" encoding="utf-8"?>
<!-- Generator: Adobe Illustrator 16.0.0, SVG Export Plug-In . SVG Version: 6.00 Build 0)  -->
<!DOCTYPE svg PUBLIC "-//W3C//DTD SVG 1.0//EN" "http://www.w3.org/TR/2001/REC-SVG-20010904/DTD/svg10.dtd">
<svg version="1.0" id="Layer_1" xmlns="http://www.w3.org/2000/svg" xmlns:xlink="http://www.w3.org/1999/xlink" x="0px" y="0px"
	 width="32px" height="32px" viewBox="0 0 32 32" enable-background="new 0 0 32 32" xml:space="preserve">
<g>
	<path fill="#EAEAEA" d="M32,30c0,1.104-0.896,2-2,2H2c-1.104,0-2-0.896-2-2V2c0-1.104,0.896-2,2-2h28c1.104,0,2,0.896,2,2V30z"/>
	<path opacity="0.1" d="M30,0H2C0.896,0,0,0.896,0,2v28c0,1.104,0.896,2,2,2h28c1.104,0,2-0.896,2-2V2C32,0.896,31.104,0,30,0z
		 M30,30H2V2h28V30z"/>
	<path fill="#434854" d="M17,14.751l-2-0.5c-1.019-0.348-2-1.146-2-2.251s0.896-2,2-2h2c1.104,0,2,0.896,2,2h3c0-2.762-2.238-5-5-5
		h-2c-2.762,0-5,2.238-5,5s2.438,4.751,5,5.251l2,0.5c1.104,0.271,2,1.145,2,2.249s-0.896,2-2,2h-2c-1.104,0-2-0.896-2-2h-3
		c0,2.762,2.238,5,5,5h2c2.762,0,5-2.238,5-5S19.709,15.418,17,14.751z"/>
	<path fill="#434854" d="M23,15H9c-0.553,0-1,0.447-1,1s0.447,1,1,1h14c0.553,0,1-0.447,1-1S23.553,15,23,15z"/>
</g>
<g>
</g>
<g>
</g>
<g>
</g>
<g>
</g>
<g>
</g>
<g>
</g>
</svg>
