<?xml version="1.0" encoding="utf-8"?>
<!-- Generator: Adobe Illustrator 16.0.0, SVG Export Plug-In . SVG Version: 6.00 Build 0)  -->
<!DOCTYPE svg PUBLIC "-//W3C//DTD SVG 1.0//EN" "http://www.w3.org/TR/2001/REC-SVG-20010904/DTD/svg10.dtd">
<svg version="1.0" id="Layer_1" xmlns="http://www.w3.org/2000/svg" xmlns:xlink="http://www.w3.org/1999/xlink" x="0px" y="0px"
	 width="32px" height="32px" viewBox="0 0 32 32" enable-background="new 0 0 32 32" xml:space="preserve">
<g>
	<path fill="#EAEAEA" d="M32.042,30c0,1.104-0.896,2-2,2h-28c-1.104,0-2-0.896-2-2V2c0-1.104,0.896-2,2-2h28c1.104,0,2,0.896,2,2V30
		z"/>
	<path opacity="0.1" d="M30.042,0h-28c-1.104,0-2,0.896-2,2v28c0,1.104,0.896,2,2,2h28c1.104,0,2-0.896,2-2V2
		C32.042,0.896,31.146,0,30.042,0z M30.042,30h-28V2h28V30z"/>
	<g>
		<path fill="#434854" d="M17.031,12h-2c-0.553,0-0.859,0.312-1,1l-2,11c-0.094,0.609,0.447,1,1,1h2c0.553,0,0.845-0.466,1-1l2-11
			C18.141,12.375,17.584,12,17.031,12z"/>
		<path fill="#434854" d="M18.031,7h-2c-0.553,0-0.891,0.328-1,1l-0.25,2c-0.109,0.594,0.25,1,1,1h2c0.656,0,0.866-0.46,1-1l0.25-2
			C19.125,7.438,18.584,7,18.031,7z"/>
	</g>
</g>
<g>
</g>
<g>
</g>
<g>
</g>
<g>
</g>
<g>
</g>
<g>
</g>
</svg>
