<?xml version="1.0" encoding="utf-8"?>
<!-- Generator: Adobe Illustrator 16.0.0, SVG Export Plug-In . SVG Version: 6.00 Build 0)  -->
<!DOCTYPE svg PUBLIC "-//W3C//DTD SVG 1.0//EN" "http://www.w3.org/TR/2001/REC-SVG-20010904/DTD/svg10.dtd">
<svg version="1.0" id="Layer_1" xmlns="http://www.w3.org/2000/svg" xmlns:xlink="http://www.w3.org/1999/xlink" x="0px" y="0px"
	 width="32px" height="32px" viewBox="0 0 32 32" enable-background="new 0 0 32 32" xml:space="preserve">
<g>
	<g>
		<path fill="#434854" d="M11.042,13.999h-10c-0.553,0-1,0.447-1,1v2c0,0.553,0.447,1,1,1h10c0.553,0,1-0.447,1-1v-2
			C12.042,14.446,11.595,13.999,11.042,13.999z"/>
		<path fill="#434854" d="M11.042,7.999h-10c-0.553,0-1,0.447-1,1v2c0,0.553,0.447,1,1,1h10c0.553,0,1-0.447,1-1v-2
			C12.042,8.446,11.595,7.999,11.042,7.999z"/>
		<path fill="#434854" d="M31.042,25.999h-30c-0.553,0-1,0.447-1,1v2c0,0.553,0.447,1,1,1h30c0.553,0,1-0.447,1-1v-2
			C32.042,26.446,31.595,25.999,31.042,25.999z"/>
		<path fill="#434854" d="M11.042,19.999h-10c-0.553,0-1,0.447-1,1v2c0,0.553,0.447,1,1,1h10c0.553,0,1-0.447,1-1v-2
			C12.042,20.446,11.595,19.999,11.042,19.999z"/>
		<path fill="#434854" d="M31.042,1.999h-30c-0.553,0-1,0.447-1,1v2c0,0.553,0.447,1,1,1h30c0.553,0,1-0.447,1-1v-2
			C32.042,2.446,31.595,1.999,31.042,1.999z"/>
	</g>
	<path fill="#469FCC" d="M14.628,17.449l5.994,5.996c0.781,0.781,1.986,0.718,2.767-0.063c0.781-0.781,0.892-1.937,0.11-2.718
		l-2.707-2.646h9.25c1.104,0,2-0.879,2-1.983s-0.896-2.017-2-2.017H20.87l2.52-2.505c0.781-0.781,0.923-2.187,0.142-2.968
		c-0.78-0.781-2.173-0.657-2.954,0.124l-5.949,5.951C13.847,15.401,13.847,16.669,14.628,17.449z"/>
</g>
<g>
</g>
<g>
</g>
<g>
</g>
<g>
</g>
<g>
</g>
<g>
</g>
</svg>
