<?xml version="1.0" encoding="utf-8"?>
<!-- Generator: Adobe Illustrator 16.0.0, SVG Export Plug-In . SVG Version: 6.00 Build 0)  -->
<!DOCTYPE svg PUBLIC "-//W3C//DTD SVG 1.0//EN" "http://www.w3.org/TR/2001/REC-SVG-20010904/DTD/svg10.dtd">
<svg version="1.0" id="Layer_1" xmlns="http://www.w3.org/2000/svg" xmlns:xlink="http://www.w3.org/1999/xlink" x="0px" y="0px"
	 width="32px" height="32px" viewBox="0 0 32 32" enable-background="new 0 0 32 32" xml:space="preserve">
<g>
	<path fill="#434854" d="M13.042,17.999h18c0.553,0,1-0.447,1-1v-2c0-0.553-0.447-1-1-1h-18c-0.553,0-1,0.447-1,1v2
		C12.042,17.552,12.489,17.999,13.042,17.999z"/>
	<path fill="#434854" d="M1.042,23.999h30c0.553,0,1-0.447,1-1v-2c0-0.553-0.447-1-1-1h-30c-0.553,0-1,0.447-1,1v2
		C0.042,23.552,0.489,23.999,1.042,23.999z"/>
	<path fill="#434854" d="M13.042,5.999h18c0.553,0,1-0.447,1-1v-2c0-0.553-0.447-1-1-1h-18c-0.553,0-1,0.447-1,1v2
		C12.042,5.552,12.489,5.999,13.042,5.999z"/>
	<path fill="#434854" d="M1.042,11.999h30c0.553,0,1-0.447,1-1v-2c0-0.553-0.447-1-1-1h-30c-0.553,0-1,0.447-1,1v2
		C0.042,11.552,0.489,11.999,1.042,11.999z"/>
	<path fill="#434854" d="M13.042,29.999h18c0.553,0,1-0.447,1-1v-2c0-0.553-0.447-1-1-1h-18c-0.553,0-1,0.447-1,1v2
		C12.042,29.552,12.489,29.999,13.042,29.999z"/>
</g>
<g>
</g>
<g>
</g>
<g>
</g>
<g>
</g>
<g>
</g>
<g>
</g>
</svg>
