<?xml version="1.0" encoding="utf-8"?>
<!-- Generator: Adobe Illustrator 16.0.0, SVG Export Plug-In . SVG Version: 6.00 Build 0)  -->
<!DOCTYPE svg PUBLIC "-//W3C//DTD SVG 1.0//EN" "http://www.w3.org/TR/2001/REC-SVG-20010904/DTD/svg10.dtd">
<svg version="1.0" id="Layer_1" xmlns="http://www.w3.org/2000/svg" xmlns:xlink="http://www.w3.org/1999/xlink" x="0px" y="0px"
	 width="32px" height="32px" viewBox="0 0 32 32" enable-background="new 0 0 32 32" xml:space="preserve">
<g>
	<path fill="#434854" d="M31.042,13.999h-30c-0.553,0-1,0.447-1,1v2c0,0.553,0.447,1,1,1h30c0.553,0,1-0.447,1-1v-2
		C32.042,14.446,31.595,13.999,31.042,13.999z"/>
	<path fill="#434854" d="M31.042,7.999h-30c-0.553,0-1,0.447-1,1v2c0,0.553,0.447,1,1,1h30c0.553,0,1-0.447,1-1v-2
		C32.042,8.446,31.595,7.999,31.042,7.999z"/>
	<path fill="#434854" d="M31.042,25.999h-30c-0.553,0-1,0.447-1,1v2c0,0.553,0.447,1,1,1h30c0.553,0,1-0.447,1-1v-2
		C32.042,26.446,31.595,25.999,31.042,25.999z"/>
	<path fill="#434854" d="M31.042,19.999h-30c-0.553,0-1,0.447-1,1v2c0,0.553,0.447,1,1,1h30c0.553,0,1-0.447,1-1v-2
		C32.042,20.446,31.595,19.999,31.042,19.999z"/>
	<path fill="#434854" d="M31.042,1.999h-30c-0.553,0-1,0.447-1,1v2c0,0.553,0.447,1,1,1h30c0.553,0,1-0.447,1-1v-2
		C32.042,2.446,31.595,1.999,31.042,1.999z"/>
</g>
<g>
</g>
<g>
</g>
<g>
</g>
<g>
</g>
<g>
</g>
<g>
</g>
</svg>
