<?xml version="1.0" encoding="utf-8"?>
<!-- Generator: Adobe Illustrator 16.0.0, SVG Export Plug-In . SVG Version: 6.00 Build 0)  -->
<!DOCTYPE svg PUBLIC "-//W3C//DTD SVG 1.0//EN" "http://www.w3.org/TR/2001/REC-SVG-20010904/DTD/svg10.dtd">
<svg version="1.0" id="Layer_1" xmlns="http://www.w3.org/2000/svg" xmlns:xlink="http://www.w3.org/1999/xlink" x="0px" y="0px"
	 width="32px" height="32px" viewBox="0 0 32 32" enable-background="new 0 0 32 32" xml:space="preserve">
<g>
	<g>
		<g>
			<path fill="#434854" d="M11.042,1.999h-10c-0.553,0-1,0.447-1,1v2c0,0.553,0.447,1,1,1h10c0.553,0,1-0.447,1-1v-2
				C12.042,2.446,11.595,1.999,11.042,1.999z"/>
			<path fill="#434854" d="M11.042,7.999h-10c-0.553,0-1,0.447-1,1v2c0,0.553,0.447,1,1,1h10c0.553,0,1-0.447,1-1v-2
				C12.042,8.446,11.595,7.999,11.042,7.999z"/>
			<path fill="#434854" d="M11.042,13.999h-10c-0.553,0-1,0.447-1,1v2c0,0.553,0.447,1,1,1h10c0.553,0,1-0.447,1-1v-2
				C12.042,14.446,11.595,13.999,11.042,13.999z"/>
			<path fill="#434854" d="M11.042,19.999h-10c-0.553,0-1,0.447-1,1v2c0,0.553,0.447,1,1,1h10c0.553,0,1-0.447,1-1v-2
				C12.042,20.446,11.595,19.999,11.042,19.999z"/>
			<path fill="#434854" d="M11.042,25.999h-10c-0.553,0-1,0.447-1,1v2c0,0.553,0.447,1,1,1h10c0.553,0,1-0.447,1-1v-2
				C12.042,26.446,11.595,25.999,11.042,25.999z"/>
		</g>
	</g>
	<g>
		<path fill="#469FCC" d="M16.712,25.464l5.951,5.949c0.78,0.781,2.048,0.781,2.828,0l5.996-5.994
			c0.781-0.781,0.718-1.986-0.063-2.767c-0.781-0.781-1.937-0.892-2.718-0.11l-2.646,2.707v-6.25c0-1.104-0.896-2-2-2s-2,0.896-2,2
			v6.172l-2.505-2.52c-0.781-0.781-2.187-0.923-2.968-0.142C15.807,23.29,15.931,24.683,16.712,25.464z"/>
	</g>
	<g>
		<path fill="#469FCC" d="M31.391,6.534l-5.951-5.949c-0.78-0.781-2.048-0.781-2.828,0l-5.996,5.994
			c-0.781,0.781-0.718,1.986,0.063,2.767c0.781,0.781,1.937,0.892,2.718,0.11l2.646-2.707v6.25c0,1.104,0.896,2,2,2s2-0.896,2-2
			V6.827l2.505,2.52c0.781,0.781,2.187,0.923,2.968,0.142C32.296,8.708,32.172,7.315,31.391,6.534z"/>
	</g>
</g>
<g>
</g>
<g>
</g>
<g>
</g>
<g>
</g>
<g>
</g>
<g>
</g>
</svg>
