<?xml version="1.0" encoding="utf-8"?>
<!-- Generator: Adobe Illustrator 16.0.0, SVG Export Plug-In . SVG Version: 6.00 Build 0)  -->
<!DOCTYPE svg PUBLIC "-//W3C//DTD SVG 1.0//EN" "http://www.w3.org/TR/2001/REC-SVG-20010904/DTD/svg10.dtd">
<svg version="1.0" id="Layer_1" xmlns="http://www.w3.org/2000/svg" xmlns:xlink="http://www.w3.org/1999/xlink" x="0px" y="0px"
	 width="32px" height="32px" viewBox="0 0 32 32" enable-background="new 0 0 32 32" xml:space="preserve">
<g>
	<path fill="#434854" d="M8.042,25.5c0-0.828-0.672-1.5-1.5-1.5h-5c-0.828,0-1.5,0.672-1.5,1.5v5c0,0.828,0.672,1.5,1.5,1.5h5
		c0.828,0,1.5-0.672,1.5-1.5V25.5z"/>
	<path fill="#434854" d="M26.042,25.5c0-0.828-0.672-1.5-1.5-1.5h-5c-0.828,0-1.5,0.672-1.5,1.5v5c0,0.828,0.672,1.5,1.5,1.5h5
		c0.828,0,1.5-0.672,1.5-1.5V25.5z"/>
	<path fill="#434854" d="M8.042,7.5c0-0.828-0.672-1.5-1.5-1.5h-5c-0.828,0-1.5,0.672-1.5,1.5v5c0,0.828,0.672,1.5,1.5,1.5h5
		c0.828,0,1.5-0.672,1.5-1.5V7.5z"/>
	<path fill="#434854" d="M26.042,7.5c0-0.828-0.672-1.5-1.5-1.5h-5c-0.828,0-1.5,0.672-1.5,1.5v5c0,0.828,0.672,1.5,1.5,1.5h5
		c0.828,0,1.5-0.672,1.5-1.5V7.5z"/>
	<g>
		<rect x="8.042" y="27" fill="#DAE2E5" width="10" height="2"/>
		<rect x="8.042" y="9" fill="#DAE2E5" width="10" height="2"/>
		<rect x="3.042" y="14" fill="#DAE2E5" width="2" height="10"/>
		<rect x="21.042" y="14" fill="#DAE2E5" width="2" height="10"/>
	</g>
	<g opacity="0.1">
		<rect x="21.042" y="23" width="2" height="1"/>
		<rect x="3.042" y="23" width="2" height="1"/>
		<rect x="21.042" y="14" width="2" height="1"/>
		<rect x="3.042" y="14" width="2" height="1"/>
	</g>
	<g opacity="0.1">
		<rect x="8.042" y="27" width="1" height="2"/>
		<rect x="8.042" y="9" width="1" height="2"/>
		<rect x="17.042" y="27" width="1" height="2"/>
		<rect x="17.042" y="9" width="1" height="2"/>
	</g>
	<g>
		<rect x="17.042" fill="#EACA44" width="2" height="2"/>
		<rect x="12.042" y="13" fill="#EACA44" width="2" height="2"/>
		<rect x="12.042" y="5" fill="#EACA44" width="2" height="2"/>
		<rect x="25.042" fill="#EACA44" width="2" height="2"/>
		<path fill="#EACA44" d="M29.042,2h1v1h2V2c0-1.104-0.896-2-2-2h-1V2z"/>
		<rect x="17.042" y="18" fill="#EACA44" width="2" height="2"/>
		<path fill="#EACA44" d="M14.042,3V2h1V0h-1c-1.104,0-2,0.896-2,2v1H14.042z"/>
		<path fill="#EACA44" d="M30.042,17v1h-1v2h1c1.104,0,2-0.896,2-2v-1H30.042z"/>
		<path fill="#EACA44" d="M15.042,18h-1v-1h-2v1c0,1.104,0.896,2,2,2h1V18z"/>
		<rect x="30.042" y="13" fill="#EACA44" width="2" height="2"/>
		<rect x="30.042" y="9" fill="#EACA44" width="2" height="2"/>
		<rect x="21.042" fill="#EACA44" width="2" height="2"/>
		<rect x="30.042" y="5" fill="#EACA44" width="2" height="2"/>
		<rect x="25.042" y="18" fill="#EACA44" width="2" height="2"/>
	</g>
</g>
<g>
</g>
<g>
</g>
<g>
</g>
<g>
</g>
<g>
</g>
<g>
</g>
</svg>
