<?xml version="1.0" encoding="utf-8"?>
<!-- Generator: Adobe Illustrator 16.0.0, SVG Export Plug-In . SVG Version: 6.00 Build 0)  -->
<!DOCTYPE svg PUBLIC "-//W3C//DTD SVG 1.0//EN" "http://www.w3.org/TR/2001/REC-SVG-20010904/DTD/svg10.dtd">
<svg version="1.0" id="Layer_1" xmlns="http://www.w3.org/2000/svg" xmlns:xlink="http://www.w3.org/1999/xlink" x="0px" y="0px"
	 width="32px" height="32px" viewBox="0 0 32 32" enable-background="new 0 0 32 32" xml:space="preserve">
<g>
	<path fill="#84BF56" d="M30.042,8V4c0-1.104-0.896-2-2-2h-24c-1.104,0-2,0.896-2,2v4H30.042z"/>
	<path opacity="0.2" fill="#FFFFFF" d="M28.042,2h-24c-1.104,0-2,0.896-2,2v1c0-1.104,0.896-2,2-2h24c1.104,0,2,0.896,2,2V4
		C30.042,2.896,29.146,2,28.042,2z"/>
	<path fill="#84BF56" d="M4.042,8v22c0,1.104,0.896,2,2,2h20c1.104,0,2-0.896,2-2V8H4.042z"/>
	<rect x="4.042" y="8" opacity="0.15" width="24" height="1"/>
	<g opacity="0.15">
		<path d="M10.042,13c-0.553,0-1,0.447-1,1v12c0,0.553,0.447,1,1,1s1-0.447,1-1V14C11.042,13.447,10.595,13,10.042,13z"/>
		<path d="M14.042,13c-0.553,0-1,0.447-1,1v12c0,0.553,0.447,1,1,1s1-0.447,1-1V14C15.042,13.447,14.595,13,14.042,13z"/>
		<path d="M18.042,13c-0.553,0-1,0.447-1,1v12c0,0.553,0.447,1,1,1s1-0.447,1-1V14C19.042,13.447,18.595,13,18.042,13z"/>
		<path d="M22.042,13c-0.553,0-1,0.447-1,1v12c0,0.553,0.447,1,1,1s1-0.447,1-1V14C23.042,13.447,22.595,13,22.042,13z"/>
	</g>
	<path fill="#434854" d="M19.044,1c0-0.553-0.447-1-1-1h-4c-0.553,0-1,0.447-1,1v1h6V1z"/>
</g>
<g>
</g>
<g>
</g>
<g>
</g>
<g>
</g>
<g>
</g>
<g>
</g>
</svg>
